<svg width="15px" height="15px" viewBox="0 0 23 23" fill="none" xmlns="http://www.w3.org/2000/svg">
<path d="M20.0936 16.2985V6.70165C20.6267 6.56504 21.1142 6.28978 21.5065 5.90383C21.8989 5.51788 22.1821 5.03499 22.3274 4.50418C22.4728 3.97337 22.4751 3.41355 22.3341 2.88157C22.1931 2.34959 21.9139 1.86438 21.5247 1.47523C21.1355 1.08607 20.6503 0.806825 20.1184 0.665839C19.5864 0.524854 19.0266 0.527151 18.4958 0.672498C17.9649 0.817845 17.482 1.10107 17.0961 1.4934C16.7102 1.88574 16.4349 2.37322 16.2983 2.90634H6.70141C6.56479 2.37322 6.28954 1.88574 5.90359 1.4934C5.51764 1.10107 5.03474 0.817845 4.50394 0.672498C3.97313 0.527151 3.41331 0.524854 2.88133 0.665839C2.34934 0.806825 1.86414 1.08607 1.47498 1.47523C1.08583 1.86438 0.806581 2.34959 0.665595 2.88157C0.524609 3.41355 0.526907 3.97337 0.672254 4.50418C0.817601 5.03499 1.10082 5.51788 1.49316 5.90383C1.88549 6.28978 2.37297 6.56504 2.90609 6.70165V16.2985C2.37297 16.4351 1.88549 16.7104 1.49316 17.0963C1.10082 17.4823 0.817601 17.9652 0.672254 18.496C0.526907 19.0268 0.524609 19.5866 0.665595 20.1186C0.806581 20.6506 1.08583 21.1358 1.47498 21.525C1.86414 21.9141 2.34934 22.1934 2.88133 22.3343C3.41331 22.4753 3.97313 22.473 4.50394 22.3277C5.03474 22.1823 5.51764 21.8991 5.90359 21.5068C6.28954 21.1144 6.56479 20.627 6.70141 20.0938H16.2983C16.4349 20.627 16.7102 21.1144 17.0961 21.5068C17.482 21.8991 17.9649 22.1823 18.4958 22.3277C19.0266 22.473 19.5864 22.4753 20.1184 22.3343C20.6503 22.1934 21.1355 21.9141 21.5247 21.525C21.9139 21.1358 22.1931 20.6506 22.3341 20.1186C22.4751 19.5866 22.4728 19.0268 22.3274 18.496C22.1821 17.9652 21.8989 17.4823 21.5065 17.0963C21.1142 16.7104 20.6267 16.4351 20.0936 16.2985ZM19.3123 2.12509C19.6214 2.12509 19.9235 2.21673 20.1804 2.38842C20.4374 2.56011 20.6376 2.80414 20.7559 3.08965C20.8742 3.37516 20.9051 3.68932 20.8448 3.99242C20.7845 4.29551 20.6357 4.57392 20.4172 4.79244C20.1987 5.01096 19.9203 5.15978 19.6172 5.22007C19.3141 5.28035 18.9999 5.24941 18.7144 5.13115C18.4289 5.01289 18.1849 4.81262 18.0132 4.55567C17.8415 4.29872 17.7498 3.99662 17.7498 3.68759C17.7503 3.27331 17.915 2.87613 18.2079 2.58319C18.5009 2.29026 18.8981 2.1255 19.3123 2.12509ZM2.12484 3.68759C2.12484 3.37856 2.21648 3.07646 2.38817 2.81951C2.55986 2.56256 2.80389 2.36229 3.0894 2.24403C3.37491 2.12576 3.68908 2.09482 3.99217 2.15511C4.29527 2.2154 4.57368 2.36421 4.7922 2.58273C5.01072 2.80125 5.15953 3.07966 5.21982 3.38276C5.28011 3.68586 5.24917 4.00002 5.13091 4.28553C5.01264 4.57104 4.81237 4.81507 4.55542 4.98676C4.29847 5.15845 3.99638 5.25009 3.68734 5.25009C3.27307 5.24967 2.87588 5.08492 2.58295 4.79199C2.29001 4.49905 2.12526 4.10186 2.12484 3.68759ZM3.68734 20.8751C3.37831 20.8751 3.07622 20.7834 2.81927 20.6118C2.56231 20.4401 2.36204 20.196 2.24378 19.9105C2.12552 19.625 2.09458 19.3109 2.15487 19.0078C2.21516 18.7047 2.36397 18.4263 2.58249 18.2077C2.80101 17.9892 3.07942 17.8404 3.38252 17.7801C3.68561 17.7198 3.99978 17.7508 4.28529 17.869C4.5708 17.9873 4.81483 18.1876 4.98652 18.4445C5.15821 18.7015 5.24984 19.0036 5.24984 19.3126C5.24943 19.7269 5.08468 20.1241 4.79174 20.417C4.49881 20.7099 4.10162 20.8747 3.68734 20.8751ZM16.2983 18.5313H6.70141C6.56146 17.9942 6.28078 17.5041 5.88829 17.1116C5.4958 16.7192 5.00572 16.4385 4.46859 16.2985V6.70165C5.00569 6.56163 5.49573 6.28092 5.8882 5.88845C6.28068 5.49597 6.56139 5.00593 6.70141 4.46884H16.2983C16.4382 5.00597 16.7189 5.49605 17.1114 5.88853C17.5039 6.28102 17.994 6.56171 18.5311 6.70165V16.2985C17.9939 16.4384 17.5038 16.7191 17.1113 17.1116C16.7188 17.5041 16.4382 17.9942 16.2983 18.5313ZM19.3123 20.8751C19.0033 20.8751 18.7012 20.7834 18.4443 20.6118C18.1873 20.4401 17.987 20.196 17.8688 19.9105C17.7505 19.625 17.7196 19.3109 17.7799 19.0078C17.8402 18.7047 17.989 18.4263 18.2075 18.2077C18.426 17.9892 18.7044 17.8404 19.0075 17.7801C19.3106 17.7198 19.6248 17.7508 19.9103 17.869C20.1958 17.9873 20.4398 18.1876 20.6115 18.4445C20.7832 18.7015 20.8748 19.0036 20.8748 19.3126C20.8742 19.7268 20.7094 20.1239 20.4165 20.4168C20.1236 20.7097 19.7266 20.8745 19.3123 20.8751Z" fill="black"/>
</svg>
