<svg width="18" height="18" viewBox="0 0 18 18" fill="none" xmlns="http://www.w3.org/2000/svg">
<path d="M8.99984 0.666748C7.35166 0.666748 5.7405 1.15549 4.37009 2.07117C2.99968 2.98685 1.93158 4.28834 1.30084 5.81105C0.670115 7.33377 0.505087 9.00933 0.82663 10.6258C1.14817 12.2423 1.94185 13.7272 3.10728 14.8926C4.27272 16.0581 5.75758 16.8517 7.37409 17.1733C8.9906 17.4948 10.6662 17.3298 12.1889 16.6991C13.7116 16.0683 15.0131 15.0002 15.9288 13.6298C16.8444 12.2594 17.3332 10.6483 17.3332 9.00008C17.3332 7.90573 17.1176 6.8221 16.6988 5.81105C16.28 4.80001 15.6662 3.88135 14.8924 3.10752C14.1186 2.3337 13.1999 1.71987 12.1889 1.30109C11.1778 0.882296 10.0942 0.666748 8.99984 0.666748ZM8.99984 14.0001C8.83502 14.0001 8.67391 13.9512 8.53687 13.8596C8.39982 13.7681 8.29301 13.6379 8.22994 13.4857C8.16687 13.3334 8.15037 13.1658 8.18252 13.0042C8.21467 12.8425 8.29404 12.694 8.41059 12.5775C8.52713 12.4609 8.67562 12.3816 8.83727 12.3494C8.99892 12.3173 9.16647 12.3338 9.31874 12.3968C9.47102 12.4599 9.60116 12.5667 9.69273 12.7038C9.7843 12.8408 9.83317 13.0019 9.83317 13.1667C9.83317 13.3878 9.74538 13.5997 9.5891 13.756C9.43282 13.9123 9.22085 14.0001 8.99984 14.0001ZM9.83317 9.70008V10.6667C9.83317 10.8878 9.74538 11.0997 9.5891 11.256C9.43282 11.4123 9.22085 11.5001 8.99984 11.5001C8.77883 11.5001 8.56687 11.4123 8.41059 11.256C8.25431 11.0997 8.16651 10.8878 8.16651 10.6667V9.00008C8.16651 8.77907 8.25431 8.56711 8.41059 8.41083C8.56687 8.25455 8.77883 8.16675 8.99984 8.16675C9.24707 8.16675 9.48874 8.09344 9.6943 7.95609C9.89987 7.81873 10.0601 7.62351 10.1547 7.3951C10.2493 7.1667 10.2741 6.91536 10.2258 6.67288C10.1776 6.43041 10.0585 6.20768 9.88372 6.03286C9.70891 5.85805 9.48618 5.739 9.2437 5.69077C9.00123 5.64254 8.74989 5.66729 8.52149 5.7619C8.29308 5.85651 8.09786 6.01672 7.9605 6.22229C7.82315 6.42785 7.74984 6.66952 7.74984 6.91675C7.74984 7.13776 7.66204 7.34972 7.50576 7.506C7.34948 7.66228 7.13752 7.75008 6.91651 7.75008C6.69549 7.75008 6.48353 7.66228 6.32725 7.506C6.17097 7.34972 6.08317 7.13776 6.08317 6.91675C6.08099 6.37533 6.22956 5.844 6.51223 5.38223C6.7949 4.92046 7.20052 4.54648 7.68369 4.30217C8.16685 4.05786 8.70848 3.95285 9.24794 3.99891C9.78739 4.04497 10.3034 4.24027 10.7381 4.56296C11.1729 4.88564 11.5092 5.32296 11.7095 5.82597C11.9098 6.32898 11.9662 6.87781 11.8723 7.41102C11.7783 7.94423 11.5378 8.44077 11.1777 8.84505C10.8176 9.24932 10.352 9.54539 9.83317 9.70008Z" fill="#FAFAFA"/>
</svg>
