<svg width="16" height="16" viewBox="0 0 16 16" fill="none" xmlns="http://www.w3.org/2000/svg">
<path d="M14.5616 8.00001L15.3896 6.56901C15.4891 6.39684 15.5162 6.1922 15.4648 6.00008C15.4135 5.80797 15.288 5.6441 15.1159 5.54451L13.6834 4.71651V3.06651C13.6834 2.8676 13.6043 2.67683 13.4637 2.53618C13.323 2.39553 13.1323 2.31651 12.9334 2.31651H11.2841L10.4569 0.884763C10.3569 0.71295 10.1934 0.587392 10.0016 0.535263C9.90648 0.509474 9.80718 0.502825 9.70946 0.515699C9.61175 0.528574 9.51756 0.560716 9.43235 0.610263L7.99986 1.43826L6.56736 0.609513C6.3951 0.510061 6.19039 0.48311 5.99826 0.534588C5.80613 0.586067 5.64231 0.711758 5.54286 0.884013L4.71486 2.31651H3.06561C2.86669 2.31651 2.67593 2.39553 2.53528 2.53618C2.39462 2.67683 2.31561 2.8676 2.31561 3.06651V4.71576L0.883105 5.54376C0.797629 5.59293 0.722711 5.6585 0.662654 5.73671C0.602597 5.81492 0.558585 5.90422 0.533147 5.99949C0.507709 6.09476 0.501347 6.19412 0.514425 6.29186C0.527503 6.38959 0.559764 6.48378 0.609355 6.56901L1.43736 8.00001L0.609355 9.43101C0.510347 9.60334 0.483484 9.80783 0.534624 9.99988C0.585764 10.1919 0.710759 10.356 0.882355 10.4563L2.31486 11.2843V12.9335C2.31486 13.1324 2.39387 13.3232 2.53453 13.4638C2.67518 13.6045 2.86594 13.6835 3.06486 13.6835H4.71486L5.54286 15.116C5.60925 15.2295 5.70406 15.3238 5.81794 15.3895C5.93182 15.4553 6.06086 15.4903 6.19236 15.491C6.32286 15.491 6.4526 15.4565 6.5681 15.3898L7.9991 14.5618L9.43161 15.3898C9.60382 15.4891 9.80839 15.516 10.0005 15.4647C10.1925 15.4134 10.3564 15.288 10.4561 15.116L11.2834 13.6835H12.9326C13.1315 13.6835 13.3223 13.6045 13.4629 13.4638C13.6036 13.3232 13.6826 13.1324 13.6826 12.9335V11.2843L15.1151 10.4563C15.2004 10.407 15.2752 10.3413 15.3352 10.2631C15.3951 10.1849 15.439 10.0956 15.4645 10.0004C15.4899 9.90516 15.4963 9.80586 15.4833 9.70817C15.4703 9.61047 15.4382 9.51629 15.3889 9.43101L14.5616 8.00001ZM6.1241 4.24251C6.42257 4.24261 6.70878 4.36127 6.91976 4.57239C7.13073 4.78351 7.2492 5.06979 7.2491 5.36826C7.24901 5.66673 7.13034 5.95293 6.91923 6.16391C6.70811 6.37489 6.42182 6.49336 6.12336 6.49326C5.82489 6.49316 5.53868 6.3745 5.3277 6.16338C5.11673 5.95226 4.99826 5.66598 4.99836 5.36751C4.99846 5.06904 5.11712 4.78284 5.32823 4.57186C5.53935 4.36088 5.82564 4.24241 6.1241 4.24251ZM6.3491 11.4425L5.14911 10.5433L9.64911 4.54326L10.8491 5.44251L6.3491 11.4425ZM9.87411 11.7425C9.72632 11.7425 9.57999 11.7133 9.44347 11.6567C9.30695 11.6001 9.18292 11.5172 9.07845 11.4126C8.97399 11.3081 8.89114 11.184 8.83463 11.0475C8.77812 10.9109 8.74906 10.7645 8.74911 10.6168C8.74915 10.469 8.77831 10.3226 8.83491 10.1861C8.89151 10.0496 8.97445 9.92558 9.07899 9.82111C9.18352 9.71665 9.30761 9.63379 9.44416 9.57728C9.58072 9.52077 9.72707 9.49171 9.87486 9.49176C10.1733 9.49186 10.4595 9.61052 10.6705 9.82164C10.8815 10.0328 11 10.319 10.9999 10.6175C10.9998 10.916 10.8811 11.2022 10.67 11.4132C10.4589 11.6241 10.1726 11.7426 9.87411 11.7425Z" fill="#7191A2"/>
</svg>
