<svg width="15" height="10" viewBox="0 0 15 10" fill="none" xmlns="http://www.w3.org/2000/svg">
<path d="M7.375 0.640703C9.39102 0.640703 11.0312 2.425 11.0312 4.6182C11.0312 6.81139 9.39102 8.59569 7.375 8.59569C5.35898 8.59569 3.71875 6.81144 3.71875 4.6182C3.71875 2.42495 5.35898 0.640703 7.375 0.640703ZM7.375 6.97069C8.49503 6.97069 9.40625 5.91535 9.40625 4.6182C9.40625 3.32104 8.49503 2.2657 7.375 2.2657C6.25497 2.2657 5.34375 3.32104 5.34375 4.6182C5.34375 5.91535 6.25497 6.97069 7.375 6.97069ZM0.0625 9.09375H1.6875V0.15625H0.0625V9.09375ZM13.0625 9.09375H14.6875V0.15625H13.0625V9.09375Z" fill="black"/>
</svg>
